<svg width="64" height="64" viewBox="0 0 64 64" fill="none" xmlns="http://www.w3.org/2000/svg">
<path d="M32 33.7999C33.5464 33.7999 34.8 32.5463 34.8 31C34.8 29.4536 33.5464 28.2 32 28.2C30.4536 28.2 29.2 29.4536 29.2 31C29.2 32.5463 30.4536 33.7999 32 33.7999Z" fill="#699635"/>
<path d="M3.8 40C-2.1 49.8 8.1 52.8 12.6 49.5C9.2 54.5 12.5 63.9 22.3 58.2C33.2 51.8 30.2 33.7 30.8 31.6C29 31.9 10.1 29.5 3.8 40Z" fill="#7BB246"/>
<path d="M12.6 49.5C14 47.9 15.5 46.4 16.9 44.8L21.4 40.3C22.9 38.8 24.4 37.3 26 35.9L28.3 33.7L30.7 31.6L28.6 34L26.4 36.3L21.9 40.8C20.4 42.3 18.9 43.8 17.3 45.2C15.8 46.7 14.3 48.1 12.6 49.5Z" fill="#699635"/>
<path d="M60.2 21.9999C66.1 12.1999 55.9 9.19994 51.4 12.4999C54.8 7.49994 51.5 -1.90006 41.7 3.79994C30.8 10.1999 33.8 28.2999 33.2 30.3999C35 30.0999 53.9 32.4999 60.2 21.9999Z" fill="#7BB246"/>
<path d="M51.4 12.5C50 14.1 48.5 15.6 47.1 17.2L42.6 21.7C41.1 23.2 39.6 24.7 38 26.1L35.7 28.3L33.3 30.4L35.4 28L37.6 25.7L42.1 21.2C43.6 19.7 45.1 18.2 46.7 16.8C48.2 15.3 49.7 13.9 51.4 12.5Z" fill="#699635"/>
<path d="M22.3 3.79996C12.3 -2.00004 9.3 7.99996 12.6 12.5C7.6 9.19996 -2 12.4 3.8 22C10.3 32.7 28.7 29.8 30.8 30.3C30.5 28.6 33 9.99996 22.3 3.79996Z" fill="#83BF4F"/>
<path d="M12.6 12.5C14.2 13.9 15.8 15.3 17.3 16.7C18.9 18.1 20.4 19.6 21.9 21.1L26.4 25.6L28.6 27.9L30.7 30.3L28.3 28.2L26 26.1C24.4 24.7 22.9 23.2 21.4 21.7L16.9 17.2C15.5 15.6 14 14.1 12.6 12.5Z" fill="#699635"/>
<path d="M41.7 58.2C51.7 64 54.7 54 51.4 49.5C56.5 52.8 66 49.6 60.2 40C53.7 29.3 35.3 32.2 33.2 31.7C33.5 33.4 31 52 41.7 58.2Z" fill="#83BF4F"/>
<path d="M51.4 49.5C49.8 48.1 48.2 46.7 46.7 45.3C45.1 43.9 43.6 42.4 42.1 40.9L37.6 36.4L35.4 34L33.3 31.6L35.7 33.7L38 35.9C39.6 37.3 41.1 38.8 42.6 40.3L47.1 44.8C48.5 46.4 50 47.9 51.4 49.5ZM32 36.8L34.5 59.5C34.6 60.8 33.6 61.9 32.3 62C30.9 62.1 29.7 61.2 29.5 59.9V59.4L32 36.8Z" fill="#699635"/>
</svg>
