<svg width="64" height="45" viewBox="0 0 64 45" fill="none" xmlns="http://www.w3.org/2000/svg">
<path d="M54.4 6.4C54.4 2.88 51.52 0 48 0H38.4V6.4H48V14.88L36.864 28.8H25.6V12.8H12.8C5.728 12.8 0 18.528 0 25.6V35.2H6.4C6.4 40.512 10.688 44.8 16 44.8C21.312 44.8 25.6 40.512 25.6 35.2H39.936L54.4 17.12V6.4ZM16 38.4C14.24 38.4 12.8 36.96 12.8 35.2H19.2C19.2 36.96 17.76 38.4 16 38.4Z" fill="#008000"/>
<path d="M25.6 3.19995H9.60001V9.59995H25.6V3.19995Z" fill="#008000"/>
<path d="M54.4 25.6C49.088 25.6 44.8 29.888 44.8 35.2C44.8 40.512 49.088 44.8 54.4 44.8C59.712 44.8 64 40.512 64 35.2C64 29.888 59.712 25.6 54.4 25.6ZM54.4 38.4C52.64 38.4 51.2 36.96 51.2 35.2C51.2 33.44 52.64 32 54.4 32C56.16 32 57.6 33.44 57.6 35.2C57.6 36.96 56.16 38.4 54.4 38.4Z" fill="#008000"/>
</svg>
