<svg width="40" height="33" viewBox="0 0 40 33" fill="none" xmlns="http://www.w3.org/2000/svg">
<path d="M40 3.9144C38.529 4.57589 36.9488 5.02283 35.2876 5.22485C37.0017 4.18399 38.2841 2.54579 38.8954 0.615927C37.285 1.58668 35.5225 2.26998 33.6845 2.63613C32.4485 1.29683 30.8113 0.409126 29.0273 0.110829C27.2432 -0.187467 25.412 0.120336 23.8179 0.986452C22.2239 1.85257 20.9562 3.22854 20.2117 4.90073C19.4672 6.57293 19.2875 8.44779 19.7005 10.2342C16.4374 10.068 13.2452 9.20725 10.3311 7.70793C7.41693 6.20861 4.84602 4.1042 2.78517 1.53128C2.08051 2.76485 1.67533 4.19509 1.67533 5.71828C1.67454 7.08951 2.00728 8.43974 2.64402 9.64916C3.28076 10.8586 4.20182 11.8898 5.32546 12.6513C4.02233 12.6093 2.74795 12.2519 1.60839 11.6091V11.7163C1.60825 13.6395 2.26378 15.5035 3.46372 16.9921C4.66367 18.4806 6.33413 19.502 8.19167 19.883C6.9828 20.215 5.71538 20.2639 4.48516 20.026C5.00924 21.6808 6.03012 23.1278 7.40486 24.1646C8.7796 25.2013 10.4394 25.7758 12.1519 25.8077C9.24484 28.1236 5.65469 29.3799 1.95895 29.3743C1.30429 29.3745 0.650183 29.3357 0 29.2581C3.75139 31.7059 8.11828 33.005 12.5782 33C27.6755 33 35.9288 20.3102 35.9288 9.30459C35.9288 8.94704 35.92 8.5859 35.9042 8.22834C37.5095 7.05014 38.8953 5.59116 39.9965 3.91977L40 3.9144Z" fill="#001F00"/>
</svg>
