<svg width="19" height="31" viewBox="0 0 19 31" fill="none" xmlns="http://www.w3.org/2000/svg">
<path d="M19 0.871008C19 0.642702 18.909 0.423747 18.747 0.262311C18.5851 0.100874 18.3654 0.0101798 18.1364 0.0101798H13.8182C11.6438 -0.0977837 9.51485 0.656475 7.89661 2.10816C6.27837 3.55984 5.30236 5.59092 5.18182 7.75763V12.4061H0.863636C0.634586 12.4061 0.414917 12.4968 0.252953 12.6582C0.0909902 12.8197 0 13.0386 0 13.2669V17.7432C0 17.9715 0.0909902 18.1905 0.252953 18.3519C0.414917 18.5134 0.634586 18.6041 0.863636 18.6041H5.18182V30.1392C5.18182 30.3675 5.27281 30.5864 5.43477 30.7479C5.59673 30.9093 5.8164 31 6.04545 31H11.2273C11.4563 31 11.676 30.9093 11.838 30.7479C11.9999 30.5864 12.0909 30.3675 12.0909 30.1392V18.6041H16.6164C16.8084 18.6068 16.9959 18.5457 17.1492 18.4303C17.3025 18.3149 17.4128 18.1519 17.4627 17.9671L18.7064 13.4908C18.7407 13.3636 18.7453 13.2302 18.7199 13.101C18.6944 12.9717 18.6395 12.85 18.5594 12.7452C18.4793 12.6404 18.3762 12.5554 18.2579 12.4966C18.1396 12.4378 18.0094 12.4068 17.8773 12.4061H12.0909V7.75763C12.1339 7.33148 12.3347 6.9366 12.654 6.65008C12.9734 6.36357 13.3885 6.206 13.8182 6.20814H18.1364C18.3654 6.20814 18.5851 6.11745 18.747 5.95601C18.909 5.79458 19 5.57562 19 5.34732V0.871008Z" fill="#001F00"/>
</svg>
