<svg width="35" height="35" viewBox="0 0 35 35" fill="none" xmlns="http://www.w3.org/2000/svg">
<path d="M22.114 34.9983C21.1399 34.995 20.2069 34.6063 19.5191 33.9172C18.8313 33.2281 18.4449 32.2947 18.4445 31.3216V27.6432H22.114C23.0904 27.6432 24.0269 28.0307 24.7173 28.7205C25.4078 29.4104 25.7957 30.346 25.7957 31.3216C25.7957 32.2972 25.4078 33.2328 24.7173 33.9226C24.0269 34.6125 23.0904 35 22.114 35V34.9983ZM12.8843 34.9983C11.9103 34.995 10.9772 34.6063 10.2894 33.9172C9.60168 33.2281 9.21526 32.2947 9.2148 31.3216V22.1142C9.23576 21.1541 9.63221 20.2404 10.3192 19.5688C11.0063 18.8971 11.9292 18.5211 12.8904 18.5211C13.8516 18.5211 14.7746 18.8971 15.4616 19.5688C16.1486 20.2404 16.5451 21.1541 16.566 22.1142V31.3216C16.5656 32.2969 16.1775 33.232 15.4871 33.9215C14.7966 34.611 13.8605 34.9983 12.8843 34.9983ZM31.3191 25.7926H22.114C21.1377 25.7926 20.2015 25.4051 19.5112 24.7155C18.8209 24.0258 18.4331 23.0904 18.4331 22.115C18.4331 21.1397 18.8209 20.2043 19.5112 19.5146C20.2015 18.8249 21.1377 18.4375 22.114 18.4375H31.3191C32.2954 18.4375 33.2316 18.8249 33.9219 19.5146C34.6122 20.2043 35 21.1397 35 22.115C35 23.0904 34.6122 24.0258 33.9219 24.7155C33.2316 25.4051 32.2954 25.7926 31.3191 25.7926ZM3.68085 25.7926C2.70463 25.7926 1.76839 25.4051 1.0781 24.7155C0.387803 24.0258 0 23.0904 0 22.115C0 21.1397 0.387803 20.2043 1.0781 19.5146C1.76839 18.8249 2.70463 18.4375 3.68085 18.4375H7.35035V22.1142C7.35035 23.0891 6.96293 24.0242 6.27323 24.714C5.58353 25.4037 4.64797 25.7917 3.67212 25.7926H3.68085ZM31.3191 16.559H27.6497V12.8823C27.6517 12.1577 27.8687 11.4499 28.2732 10.8484C28.6776 10.2468 29.2515 9.77855 29.9221 9.50267C30.5928 9.22679 31.3303 9.15568 32.0414 9.29832C32.7526 9.44097 33.4054 9.79096 33.9176 10.3041C34.4297 10.8172 34.7781 11.4705 34.9189 12.1814C35.0596 12.8923 34.9863 13.6289 34.7083 14.2982C34.4303 14.9675 33.9599 15.5395 33.3567 15.9419C32.7535 16.3442 32.0445 16.559 31.3191 16.559ZM22.114 16.559C21.1399 16.5558 20.2069 16.167 19.5191 15.4779C18.8313 14.7888 18.4449 13.8555 18.4445 12.8823V3.67492C18.4445 2.70096 18.8317 1.76689 19.521 1.0782C20.2103 0.389509 21.1452 0.00260548 22.1201 0.00260548C23.0949 0.00260548 24.0298 0.389509 24.7191 1.0782C25.4084 1.76689 25.7957 2.70096 25.7957 3.67492V12.8823C25.7952 13.8576 25.4071 14.7928 24.7167 15.4822C24.0263 16.1717 23.0901 16.559 22.114 16.559ZM12.8843 16.559H3.68085C2.70463 16.559 1.76839 16.1715 1.0781 15.4819C0.387803 14.7922 0 13.8568 0 12.8815C0 11.9061 0.387803 10.9707 1.0781 10.281C1.76839 9.59136 2.70463 9.2039 3.68085 9.2039H12.886C13.8623 9.2039 14.7985 9.59136 15.4888 10.281C16.1791 10.9707 16.5669 11.9061 16.5669 12.8815C16.5669 13.8568 16.1791 14.7922 15.4888 15.4819C14.7985 16.1715 13.8623 16.559 12.886 16.559H12.8843ZM16.5538 7.35334H12.8843C12.1561 7.35541 11.4437 7.14159 10.8371 6.73893C10.2306 6.33627 9.75733 5.76288 9.47714 5.09134C9.19696 4.41981 9.12248 3.68031 9.26314 2.96646C9.40381 2.25262 9.75329 1.59652 10.2674 1.08121C10.7814 0.565895 11.4369 0.214546 12.151 0.0716322C12.865 -0.0712813 13.6054 0.000666078 14.2784 0.278367C14.9515 0.556067 15.527 1.02704 15.932 1.63166C16.3371 2.23628 16.5534 2.94737 16.5538 3.67492V7.35334Z" fill="#001F00"/>
</svg>
